<?xml version="1.0" encoding="utf-8"?>
<!-- Generator: Adobe Illustrator 15.1.0, SVG Export Plug-In . SVG Version: 6.00 Build 0)  -->
<!DOCTYPE svg PUBLIC "-//W3C//DTD SVG 1.1//EN" "http://www.w3.org/Graphics/SVG/1.1/DTD/svg11.dtd">
<svg version="1.1" id="Layer_1" xmlns="http://www.w3.org/2000/svg" xmlns:xlink="http://www.w3.org/1999/xlink" x="0px" y="0px"
	 width="76px" height="76px" viewBox="0 0 76 76" enable-background="new 0 0 76 76" xml:space="preserve">
<path fill="#CCCCCC" d="M30.083,20.583c6.121,0,11.083,4.962,11.083,11.083c0,1.246-0.205,2.443-0.584,3.561L41.21,35.7l1.54,2.696
	l3.206-1.102L45.07,43.07l4.991-0.7l-0.169,5.622l5.523-2.867l1.525,1.537l1.643,8.077l-6.652,0.935L33.89,42.079
	c-1.187,0.435-2.469,0.671-3.806,0.671C23.962,42.75,19,37.788,19,31.667S23.962,20.583,30.083,20.583z M26.917,26.125
	c-1.312,0-2.375,1.063-2.375,2.375s1.063,2.375,2.375,2.375c1.312,0,2.375-1.063,2.375-2.375S28.229,26.125,26.917,26.125z"/>
</svg>
