<?xml version="1.0" encoding="utf-8"?>
<!-- Generator: Adobe Illustrator 15.1.0, SVG Export Plug-In . SVG Version: 6.00 Build 0)  -->
<!DOCTYPE svg PUBLIC "-//W3C//DTD SVG 1.1//EN" "http://www.w3.org/Graphics/SVG/1.1/DTD/svg11.dtd">
<svg version="1.1" id="Layer_1" xmlns="http://www.w3.org/2000/svg" xmlns:xlink="http://www.w3.org/1999/xlink" x="0px" y="0px"
	 width="76px" height="76px" viewBox="0 0 76 76" enable-background="new 0 0 76 76" xml:space="preserve">
<path fill-rule="evenodd" clip-rule="evenodd" fill="#CCCCCC" d="M37.247,13.827c3.934-0.398,7.703,1.635,9.324,4.393
	c2.072,3.521,1.597,9.394,1.08,13.177c-0.281,2.056-0.723,4.233-1.542,5.934c-0.36,0.75-0.831,1.587-1.232,2.543
	c-0.328,0.78-0.831,1.953-0.54,3.006c0.311,1.129,1.949,1.431,3.083,1.85c3.718,1.371,6.386,2.957,9.94,4.854
	c3.115,1.662,6.375,3.312,7.398,7.397c0.268,1.07,0.512,3.374-0.232,4.238c-0.768,0.895-4.076,0.819-5.934,0.848
	c-11.367,0.174-21.434,0.154-33.29,0.154c-2.025,0-4.2,0.025-6.627-0.077c-2.316-0.098-5.798,0.2-6.858-0.848
	c-1.967-1.946,0.102-5.791,1.156-7.243c1.43-1.971,3.624-3.285,5.548-4.393c2.377-1.369,4.256-2.313,6.55-3.391
	c0.83-0.39,2.217-1.021,3.468-1.465c1.498-0.53,2.848-0.644,3.236-1.694c0.447-1.21-0.309-2.976-0.771-4.008
	c-0.572-1.278-1.279-2.272-1.695-3.313c-1.437-3.591-1.962-9.854-0.848-14.333C29.489,17.325,32.486,14.309,37.247,13.827z"/>
</svg>
